<svg width="540" height="633" viewBox="0 0 540 633" fill="none" xmlns="http://www.w3.org/2000/svg">
<path d="M283.411 355.491L98.6067 396.58C89.3304 398.643 83.4824 407.835 85.5448 417.111L126.634 601.915C128.696 611.192 137.888 617.04 147.164 614.977L331.969 573.889C341.245 571.826 347.093 562.634 345.031 553.358L303.942 368.553C301.879 359.277 292.688 353.429 283.411 355.491Z" fill="#FCA19A"/>
<path d="M459.061 216.938L255.243 229.225C245.756 229.797 238.529 237.952 239.101 247.439L251.388 451.256C251.96 460.744 260.115 467.971 269.602 467.399L473.419 455.111C482.907 454.539 490.134 446.385 489.562 436.898L477.274 233.08C476.702 223.593 468.548 216.366 459.061 216.938Z" fill="#F2712A"/>
<path d="M344.105 48.4393L117.178 15.7225C107.771 14.3662 99.0453 20.8927 97.689 30.2999L64.9722 257.227C63.616 266.634 70.1425 275.359 79.5496 276.716L306.476 309.432C315.884 310.789 324.609 304.262 325.965 294.855L358.682 67.9282C360.038 58.521 353.512 49.7955 344.105 48.4393Z" fill="#FFCECA"/>
<path d="M457.042 509.247C463.97 509.247 469.587 503.631 469.587 496.702C469.587 489.774 463.97 484.157 457.042 484.157C450.113 484.157 444.496 489.774 444.496 496.702C444.496 503.631 450.113 509.247 457.042 509.247Z" fill="#FCA19A"/>
<path d="M425.149 518.288C419.221 514.867 412.491 513.082 405.647 513.115C398.803 513.148 392.091 514.999 386.196 518.477C380.302 521.955 375.437 526.937 372.099 532.912C368.762 538.887 367.071 545.641 367.2 552.484L424.506 585.571C430.497 582.262 435.501 577.42 439.007 571.542C442.512 565.664 444.394 558.96 444.459 552.117C444.524 545.273 442.77 538.535 439.377 532.591C435.984 526.647 431.073 521.711 425.146 518.288H425.149Z" fill="#F2712A"/>
<path d="M424.509 585.575L367.203 552.488C367.352 559.835 369.588 566.989 373.648 573.114C375.513 575.896 376.565 579.143 376.683 582.49C376.802 585.838 375.983 589.151 374.319 592.058L367.649 603.611C367.361 604.107 367.175 604.656 367.099 605.225C367.024 605.793 367.062 606.372 367.21 606.926C367.358 607.48 367.615 607.999 367.964 608.455C368.313 608.91 368.749 609.291 369.246 609.578L374.053 612.354C374.55 612.641 375.098 612.828 375.667 612.903C376.236 612.978 376.814 612.941 377.368 612.793C377.922 612.644 378.442 612.388 378.897 612.039C379.352 611.689 379.734 611.253 380.02 610.756L386.691 599.203C388.376 596.309 390.836 593.943 393.794 592.372C396.753 590.801 400.091 590.088 403.432 590.312C410.765 590.762 418.074 589.119 424.509 585.575Z" fill="#FFCECA"/>
<path d="M411.414 285.296L412.076 280.711L412.098 280.553C412.525 277.597 412.365 274.585 411.627 271.69C410.89 268.795 409.589 266.073 407.8 263.681C406.011 261.288 403.768 259.272 401.199 257.746C398.631 256.22 395.787 255.216 392.83 254.789L391.535 254.603C388.578 254.176 385.566 254.336 382.671 255.073C379.775 255.81 377.054 257.111 374.661 258.9C372.269 260.689 370.252 262.932 368.726 265.501C367.201 268.07 366.196 270.914 365.769 273.871L362.361 297.519C361.967 300.26 362.643 303.048 364.25 305.304C365.857 307.56 368.271 309.111 370.99 309.634L370.046 316.163L406.212 321.384L409.482 298.701C416.16 295.193 418.608 292.782 417.883 288.573C417.407 285.794 413.838 284.402 411.414 285.296Z" fill="#FFCECA"/>
<path d="M412.538 277.472L366.211 270.793L365.439 276.144L411.766 282.823L412.538 277.472Z" fill="white"/>
<path d="M374.634 310.374C374.634 310.374 384.759 313.571 390.632 309.369" stroke="#FCA19A" stroke-width="0.75" stroke-linecap="round" stroke-linejoin="round"/>
<path d="M413.818 288.977C413.651 289.802 413.235 290.557 412.625 291.139C412.016 291.72 411.242 292.101 410.41 292.23" stroke="#FCA19A" stroke-width="0.75" stroke-linecap="round" stroke-linejoin="round"/>
<path d="M411.766 282.823L402.874 281.54C402.874 281.54 405.485 286.217 405.593 288.502C405.593 288.502 409.28 285.691 411.414 285.301L411.766 282.823Z" fill="#FCA19A"/>
<path d="M412.537 277.472C412.537 277.472 423.215 252.362 391.215 252.543C385.155 252.579 375.111 251.289 371.121 248.155C370.816 247.898 370.464 247.703 370.085 247.583C369.705 247.462 369.305 247.417 368.908 247.451C368.511 247.484 368.125 247.596 367.771 247.779C367.417 247.962 367.103 248.213 366.846 248.518C363.792 252.332 359.927 260.079 366.211 270.793L412.537 277.472Z" fill="#FCA19A"/>
<path d="M369.847 317.703C369.847 317.703 373.184 329.988 406.426 319.793L428.537 317.703C428.537 317.703 424.736 346.838 439.585 365.954L433.618 457.51L309.186 465.016C309.186 465.016 309.049 371.115 344.264 318.51L369.847 317.703Z" fill="white"/>
<path d="M428.536 317.703C428.536 317.703 480.395 309.453 475.181 295.185C467.318 273.86 456.231 253.867 442.306 235.904C442.306 235.904 430.099 244.145 424.13 238.946C418.16 233.748 428.323 225.943 428.323 225.943C423.203 221.765 417.365 218.552 411.096 216.461C401.365 213.372 406.735 205.025 414.69 207.476C414.69 207.476 408.799 203.395 413.582 199.499C413.582 199.499 416.946 196.661 422.593 200.029C422.593 200.029 418.031 196.987 421.399 193.62C423.212 191.807 427.265 191.774 430.415 194.38C430.415 194.38 426.276 190.818 429.219 188.841C434.324 185.411 448.362 191.777 462.726 203.339C491.741 227.071 515.427 256.652 532.239 290.154C546.435 318.295 553.387 342.594 438.649 380.32L437.802 393.294C437.802 393.294 412.738 384.076 428.536 317.703Z" fill="#FFCECA"/>
<path d="M422.478 318.276C422.478 318.276 405.075 390.996 437.382 401.42" stroke="#F2712A" stroke-linecap="round" stroke-linejoin="round"/>
<path d="M373.389 285.872C373.476 285.266 373.057 284.705 372.451 284.617C371.846 284.53 371.285 284.95 371.197 285.555L371.05 286.577C370.963 287.182 371.382 287.744 371.987 287.831C372.592 287.918 373.154 287.498 373.241 286.893L373.389 285.872Z" fill="#231815"/>
<path d="M385.325 287.593C385.413 286.988 384.993 286.426 384.388 286.339C383.783 286.252 383.221 286.672 383.134 287.277L382.987 288.298C382.899 288.904 383.319 289.465 383.924 289.553C384.529 289.64 385.091 289.22 385.178 288.614L385.325 287.593Z" fill="#231815"/>
<path d="M376.758 289.241L375.121 290.917C374.901 291.143 374.747 291.425 374.677 291.733C374.607 292.041 374.624 292.362 374.725 292.661C374.827 292.96 375.009 293.225 375.252 293.427C375.494 293.629 375.788 293.76 376.101 293.805" stroke="#231815" stroke-width="0.75" stroke-linecap="round" stroke-linejoin="round"/>
<path d="M383.697 283.374C384.676 283.233 385.675 283.377 386.575 283.788" stroke="#231815" stroke-width="0.75" stroke-linecap="round" stroke-linejoin="round"/>
<path d="M374.296 282.018C373.396 281.607 372.397 281.463 371.418 281.603" stroke="#231815" stroke-width="0.75" stroke-linecap="round" stroke-linejoin="round"/>
<path d="M374.626 300.763C374.626 300.763 380.345 302.067 382.802 298.881" stroke="#231815" stroke-width="0.75" stroke-linecap="round" stroke-linejoin="round"/>
<path d="M433.617 223.087C433.617 223.087 446.035 216.264 457.042 221.621" stroke="#FCA19A" stroke-width="0.75" stroke-linecap="round" stroke-linejoin="round"/>
<path d="M271.842 235.304C256.521 256.408 238.586 267.67 167.369 197.564L157.506 201.857C157.506 201.857 154.789 179.929 209.591 166.403L240.242 193.603C253.683 169.08 275.406 144.543 275.406 144.543C275.406 144.543 267.392 137.304 271.714 132.383C275.841 127.681 281.923 134.297 281.923 134.297C281.923 134.297 288.866 119.347 293.79 115.766C298.714 112.186 300.016 118.998 299.293 121.311C299.293 121.311 301.32 115.871 304.073 115.766C306.825 115.662 308.226 119.054 307.38 122.718C307.38 122.718 309.72 117.908 312.327 118.596C314.933 119.283 314.644 123.547 313.92 126.054C313.92 126.054 316.158 122.541 319.048 124.802C323.784 128.487 296.668 201.117 271.842 235.304Z" fill="white"/>
<path d="M287.281 138.501C289.943 139.197 292.294 140.766 293.959 142.956C295.624 145.146 296.506 147.832 296.464 150.583" stroke="#FFCECA" stroke-miterlimit="10"/>
<path d="M370.046 316.163L406.426 319.789C406.426 319.789 400.016 346.237 376.752 342.164C364.019 339.939 369.314 319.592 370.046 316.163Z" fill="#FFCECA"/>
<path d="M365.37 317.843C365.37 317.843 357.109 344.648 376.752 346.676C396.395 348.703 407.728 338.244 411.766 319.288" stroke="#F2712A" stroke-linecap="round" stroke-linejoin="round"/>
<path d="M358.742 371.115C358.742 371.115 371.422 408.78 394.644 417.842" stroke="#231815" stroke-width="0.75" stroke-linecap="round" stroke-linejoin="round"/>
<path d="M362.245 433.863C362.245 433.863 374.817 433.863 382.112 427.756" stroke="#231815" stroke-width="0.75" stroke-linecap="round" stroke-linejoin="round"/>
<path d="M283.439 466.565L309.181 465.016C309.181 465.016 322.245 363.185 344.981 318.51C344.981 318.51 325.43 317.703 316.161 322.909C306.813 328.16 292.996 361.479 288.552 372.54C281.022 391.287 280.316 391.427 276.5 404.321C276.5 404.321 271.627 417.842 268.296 425.054C266.286 429.414 258.391 418.101 249.375 417.72L251.177 451.408C251.295 453.631 251.851 455.81 252.814 457.818C253.776 459.826 255.126 461.624 256.785 463.109C258.444 464.594 260.38 465.736 262.482 466.471C264.585 467.205 266.811 467.517 269.034 467.389L283.439 466.565Z" fill="#FFCECA"/>
<path d="M286.89 422.333L293.628 426.027" stroke="#FCA19A" stroke-width="0.75" stroke-linecap="round" stroke-linejoin="round"/>
<path d="M204.96 75.7789C210.338 75.7793 215.495 77.9156 219.297 81.7181C223.099 85.5205 225.235 90.6776 225.235 96.0549V113.735C225.235 115.567 224.874 117.381 224.173 119.073C223.472 120.765 222.445 122.303 221.149 123.598C219.854 124.893 218.316 125.92 216.624 126.621C214.932 127.321 213.118 127.682 211.286 127.681H204.96C199.583 127.681 194.426 125.545 190.624 121.743C186.821 117.941 184.685 112.784 184.684 107.407V96.0549C184.684 90.6774 186.821 85.5201 190.623 81.7176C194.426 77.9152 199.583 75.7789 204.96 75.7789Z" fill="white"/>
<path d="M191.925 84.0691C197.431 84.0691 201.894 79.6061 201.894 74.1008C201.894 68.5954 197.431 64.1325 191.925 64.1325C186.42 64.1325 181.957 68.5954 181.957 74.1008C181.957 79.6061 186.42 84.0691 191.925 84.0691Z" fill="#231815"/>
<path d="M177.444 87.4254C182.949 87.4254 187.412 82.9625 187.412 77.4571C187.412 71.9518 182.949 67.4888 177.444 67.4888C171.938 67.4888 167.475 71.9518 167.475 77.4571C167.475 82.9625 171.938 87.4254 177.444 87.4254Z" fill="#231815"/>
<path d="M184.684 95.6994C190.19 95.6994 194.653 91.2364 194.653 85.7311C194.653 80.2257 190.19 75.7628 184.684 75.7628C179.179 75.7628 174.716 80.2257 174.716 85.7311C174.716 91.2364 179.179 95.6994 184.684 95.6994Z" fill="#231815"/>
<path d="M171.649 100.938C177.155 100.938 181.618 96.4748 181.618 90.9694C181.618 85.4641 177.155 81.0011 171.649 81.0011C166.144 81.0011 161.681 85.4641 161.681 90.9694C161.681 96.4748 166.144 100.938 171.649 100.938Z" fill="#231815"/>
<path d="M180.484 116.603C185.989 116.603 190.452 112.14 190.452 106.635C190.452 101.129 185.989 96.6665 180.484 96.6665C174.979 96.6665 170.516 101.129 170.516 106.635C170.516 112.14 174.979 116.603 180.484 116.603Z" fill="#231815"/>
<path d="M183.091 106.635C188.596 106.635 193.059 102.172 193.059 96.6665C193.059 91.1611 188.596 86.6982 183.091 86.6982C177.586 86.6982 173.123 91.1611 173.123 96.6665C173.123 102.172 177.586 106.635 183.091 106.635Z" fill="#231815"/>
<path d="M206.774 134.503L181.602 129.32L187.769 100.171L214.38 98.5547L206.774 134.503Z" fill="white"/>
<path d="M184.684 99.2707C184.684 99.2707 181.788 76.4328 204.96 75.7765C204.96 75.7765 226.104 74.3482 225.235 98.3422C225.235 98.3422 215.967 99.2819 211.332 90.967C211.332 90.9694 202.643 108.175 184.684 99.2707Z" fill="#231815"/>
<path d="M192.25 104.31C192.25 104.31 188.821 98.7574 184.656 98.4453C180.49 98.1333 176.071 104.698 186.566 110.628" fill="white"/>
<path d="M215.517 108.309C215.517 108.921 216.012 109.417 216.624 109.417C217.235 109.417 217.731 108.921 217.731 108.309V107.277C217.731 106.666 217.235 106.17 216.624 106.17C216.012 106.17 215.517 106.666 215.517 107.277V108.309Z" fill="#231815"/>
<path d="M203.458 108.309C203.458 108.921 203.953 109.417 204.565 109.417C205.176 109.417 205.672 108.921 205.672 108.309V107.277C205.672 106.666 205.176 106.17 204.565 106.17C203.953 106.17 203.458 106.666 203.458 107.277V108.309Z" fill="#231815"/>
<path d="M211.708 110.134L213.089 112.025C213.275 112.28 213.388 112.581 213.413 112.896C213.438 113.211 213.376 113.527 213.233 113.809C213.09 114.09 212.872 114.327 212.603 114.492C212.333 114.657 212.024 114.745 211.708 114.745" stroke="#231815" stroke-width="0.75" stroke-linecap="round" stroke-linejoin="round"/>
<path d="M205.67 103.11C204.69 102.981 203.693 103.136 202.797 103.557" stroke="#231815" stroke-width="0.75" stroke-linecap="round" stroke-linejoin="round"/>
<path d="M215.174 103.075C216.156 102.97 217.149 103.149 218.033 103.59" stroke="#231815" stroke-width="0.75" stroke-linecap="round" stroke-linejoin="round"/>
<path d="M208.263 117.078C210.1 117.125 211.934 117.265 213.757 117.497C215.238 117.8 214.261 120.375 211.206 120.398C207.964 120.423 206.109 117.57 208.263 117.078Z" fill="#231815"/>
<path d="M183.97 103.49C184.213 104.207 184.607 104.864 185.126 105.417C185.644 105.97 186.274 106.405 186.974 106.694" stroke="#FFCECA" stroke-linecap="round" stroke-linejoin="round"/>
<path d="M193.989 118.077C193.989 118.077 195.66 125.182 204.96 126.827" stroke="#FFCECA" stroke-linecap="round" stroke-linejoin="round"/>
<path d="M206.927 134.496C196.285 146.661 181.754 129.312 181.754 129.312L172.763 127.28C164.932 125.36 156.677 126.229 149.417 129.738C142.158 133.246 136.347 139.173 132.985 146.502L119.087 174.408L143.732 180.728L135.476 206.15L218.986 219.378L228.23 179.36L225.412 138.499L206.927 134.496Z" fill="#FCA19A"/>
<path d="M181.6 129.319C181.6 129.319 191.926 152.316 206.774 134.503L181.6 129.319Z" fill="white"/>
<path d="M161.681 179.364L168.999 155.213" stroke="#FFCECA" stroke-miterlimit="10"/>
<path d="M382.114 173.475C408.389 173.475 429.689 152.175 429.689 125.9C429.689 99.625 408.389 78.3248 382.114 78.3248C355.839 78.3248 334.538 99.625 334.538 125.9C334.538 152.175 355.839 173.475 382.114 173.475Z" fill="#F2712A"/>
<path d="M371.06 79.6362C373.501 85.9642 374.562 92.7412 374.169 99.5125C373.777 106.284 371.942 112.893 368.786 118.897C365.63 124.901 361.228 130.16 355.873 134.323C350.518 138.486 344.335 141.456 337.738 143.033" stroke="white" stroke-miterlimit="10"/>
<path d="M394.194 171.913C391.953 165.699 391.03 159.087 391.485 152.497C391.94 145.908 393.762 139.485 396.835 133.638C399.908 127.791 404.165 122.649 409.335 118.537C414.505 114.426 420.475 111.436 426.863 109.759" stroke="white" stroke-miterlimit="10"/>
<path d="M404.248 83.7881L359.978 168.012" stroke="white" stroke-miterlimit="10"/>
<path d="M340 103.766L424.151 147.997" stroke="white" stroke-miterlimit="10"/>
<path d="M240.439 191.713C240.439 191.713 233.319 202.212 233.029 203.95" stroke="#FFCECA" stroke-linecap="round" stroke-linejoin="round"/>
<path d="M214.721 237.692L148.1 220.02L139.258 231.322L212.564 296.201" fill="#FCA19A"/>
<path d="M152.476 206.195L218.035 219.228L214.721 237.692L146.813 224.086L152.476 206.195Z" fill="white"/>
<path d="M215.287 234.425L217.253 223.072" stroke="#FFCECA" stroke-linecap="round" stroke-linejoin="round"/>
<path d="M214.721 237.692C214.721 237.692 229 259.216 242.367 299.954L212.564 296.201L214.721 237.692Z" fill="#FCA19A"/>
<path d="M115.534 281.905L115.38 252.987L150.277 286.913L115.534 281.905Z" fill="#FCA19A"/>
<path d="M119.087 174.408L159.268 184.736L146.813 224.086C146.813 224.086 195.154 259.702 212.564 296.201L144.217 286.347C144.217 286.347 104.668 264.245 96.7386 242.956C90.9222 227.339 109.186 194.28 119.087 174.408Z" fill="white"/>
<path d="M151.678 208.718L147.459 224.217" stroke="#FFCECA" stroke-linecap="round" stroke-linejoin="round"/>
<path d="M187.558 221.943L188.726 223.094" stroke="#FFCECA" stroke-linecap="round" stroke-linejoin="round"/>
<path d="M123.481 223.094C123.481 223.094 129.801 222.97 132.829 224.213" stroke="#FFCECA" stroke-miterlimit="10"/>
<path d="M225.414 138.501L223.282 190.175L240.253 193.603C250.68 144.703 225.414 138.501 225.414 138.501Z" fill="#FCA19A"/>
<path d="M211.855 285.203L195.903 286.164C192.689 286.358 190.24 289.121 190.434 292.335C190.628 295.549 193.39 297.997 196.604 297.803L212.557 296.842C215.771 296.648 218.219 293.885 218.025 290.671C217.831 287.457 215.069 285.009 211.855 285.203Z" fill="white"/>
<path d="M258.812 94.0399C258.812 94.0399 275.488 60.1894 298.467 58.193C316.75 56.6056 319.091 71.9975 319.091 71.9975C319.091 71.9975 338.306 0.996271 417.798 1" stroke="#F2712A" stroke-miterlimit="10"/>
<path d="M319.089 71.9975C319.089 71.9975 315.876 79.5256 316.656 82.0055C317.437 84.4855 321.521 84.6309 319.089 71.9975Z" stroke="#F2712A" stroke-miterlimit="10"/>
<path d="M311.852 14.6155C314.438 14.6155 316.535 12.519 316.535 9.93277C316.535 7.34659 314.438 5.25008 311.852 5.25008C309.266 5.25008 307.169 7.34659 307.169 9.93277C307.169 12.519 309.266 14.6155 311.852 14.6155Z" fill="#FCA19A"/>
<path d="M174.281 375.647L173.978 371.025L173.968 370.866C173.772 367.885 174.165 364.894 175.126 362.065C176.086 359.236 177.594 356.623 179.563 354.377C181.533 352.131 183.926 350.294 186.606 348.973C189.285 347.652 192.199 346.871 195.18 346.675L196.486 346.59C199.468 346.394 202.458 346.787 205.288 347.747C208.117 348.707 210.729 350.215 212.976 352.185C215.222 354.155 217.059 356.548 218.38 359.227C219.702 361.907 220.483 364.82 220.678 367.802L222.242 391.644C222.422 394.408 221.53 397.135 219.753 399.259C217.976 401.383 215.449 402.742 212.697 403.053L213.13 409.641L176.668 412.033L175.167 389.16C168.78 385.145 166.528 382.551 167.577 378.41C168.268 375.679 171.933 374.568 174.281 375.647Z" fill="#F2712A"/>
<path d="M209.004 403.503C209.004 403.503 198.662 405.905 193.132 401.266" stroke="#FCA19A" stroke-linecap="round" stroke-linejoin="round"/>
<path d="M207.978 380.743C208.018 381.353 208.545 381.816 209.155 381.776C209.765 381.737 210.227 381.21 210.188 380.599L210.121 379.57C210.081 378.959 209.554 378.497 208.944 378.536C208.334 378.576 207.872 379.103 207.911 379.713L207.978 380.743Z" fill="#231815"/>
<path d="M195.944 381.533C195.984 382.144 196.511 382.606 197.121 382.566C197.731 382.526 198.193 381.999 198.153 381.389L198.085 380.359C198.045 379.749 197.518 379.286 196.908 379.326C196.298 379.366 195.836 379.893 195.876 380.504L195.944 381.533Z" fill="#231815"/>
<path d="M204.297 382.814L205.798 384.611C206.001 384.853 206.133 385.147 206.178 385.459C206.224 385.772 206.183 386.091 206.059 386.382C205.934 386.672 205.732 386.922 205.474 387.105C205.216 387.287 204.913 387.395 204.597 387.415" stroke="#231815" stroke-width="0.75" stroke-linecap="round" stroke-linejoin="round"/>
<path d="M197.828 376.425C196.862 376.209 195.855 376.275 194.926 376.615" stroke="#231815" stroke-width="0.75" stroke-linecap="round" stroke-linejoin="round"/>
<path d="M207.306 375.803C208.235 375.463 209.242 375.397 210.208 375.612" stroke="#231815" stroke-width="0.75" stroke-linecap="round" stroke-linejoin="round"/>
<path d="M171.599 379.13C171.701 379.966 172.058 380.751 172.62 381.378C173.183 382.006 173.924 382.445 174.745 382.638" stroke="#FCA19A" stroke-linecap="round" stroke-linejoin="round"/>
<path d="M174.122 373.154L183.086 372.566C181.639 374.612 180.541 376.884 179.836 379.289C179.836 379.289 176.378 376.202 174.281 375.647L174.122 373.154Z" fill="#231815"/>
<path d="M196.486 346.59C174.798 347.487 173.535 364.136 173.868 370.606L157.939 371.65L158.107 374.205L174.122 373.154L220.828 370.09C220.828 370.09 222.081 345.531 196.486 346.59Z" fill="#FFCECA"/>
<path d="M196.256 367.424L207.76 366.675C209.107 366.587 210.128 365.424 210.04 364.077C209.952 362.73 208.789 361.709 207.442 361.797L195.938 362.546C194.591 362.634 193.57 363.797 193.658 365.144C193.746 366.491 194.909 367.512 196.256 367.424Z" fill="#231815"/>
<path d="M199.282 393.264C199.245 393.061 199.26 392.852 199.327 392.657C199.394 392.462 199.51 392.288 199.663 392.151C199.817 392.013 200.003 391.918 200.205 391.873C200.406 391.829 200.615 391.837 200.812 391.896C202.731 392.514 204.709 392.931 206.714 393.14C209.429 393.12 207.026 397.145 203.373 396.432C202.465 396.335 201.601 395.987 200.879 395.427C200.156 394.868 199.604 394.119 199.282 393.264Z" fill="#231815"/>
<path d="M176.668 412.027L213.995 414.255L242.902 433.883L251.003 508.285L160.618 467.046L135.881 470.365C135.881 470.365 125.328 417.51 176.665 412.032" fill="white"/>
<path d="M213.13 409.635L176.668 412.027C176.668 412.027 181.558 436.864 203.164 434.093C216.195 432.422 213.541 416.257 213.13 409.635Z" fill="#F2712A"/>
<path d="M213.995 414.255L253.437 418.117C253.437 418.117 270.135 418.171 278.044 440.937C285.952 463.703 292.134 505.578 292.134 505.578L251.003 510.612" fill="white"/>
<path d="M133.353 399.012L116.296 462.362L37.9359 428.805C-19.1216 397.634 3.90897 375.214 8.25852 369.634C16.4964 359.068 42.7591 339.943 42.7591 339.943C58.6171 327.094 70.1803 322.077 87.6854 312.077C103.7 302.929 120.254 296.25 124.217 300.956C126.501 303.67 121.54 305.95 121.54 305.95C125.287 304.315 129.172 305.466 130.414 307.71C132.721 311.875 127.496 313.539 127.496 313.539C133.855 311.862 136.304 315.519 136.304 315.519C139.824 320.584 133.036 322.879 133.036 322.879C141.489 321.197 143.659 328.8 134.008 332.508C127.131 335.38 120.592 339 114.509 343.303C114.509 343.303 123.021 347.048 118.893 351.827C113.719 357.819 98.3647 350.307 98.3647 350.307C98.3647 350.307 70.6688 368.223 70.6688 373.718C70.6688 377.868 79.0198 381.381 133.353 399.006" fill="#F2712A"/>
<path d="M108.923 335.453C108.923 335.453 98.4915 326.243 85.4565 330.588" stroke="#FCA19A" stroke-width="0.748" stroke-linecap="round" stroke-linejoin="round"/>
<path d="M134.988 453.949L107.071 563.773L138.933 633L267.474 591.099L262.09 493.978L134.988 453.949Z" fill="white"/>
<path d="M176.51 409.635C176.51 409.635 154.199 404.48 125.971 396.523L107.076 458.759C107.076 458.759 138.54 472.963 149.619 475.57" fill="white"/>
<path d="M292.134 505.583C292.134 505.583 317.463 584.333 286.883 606.729C275.503 615.065 248.284 616.149 237.083 603.691C217.724 582.16 227.524 545.231 233.023 508.28C233.023 508.28 215.196 495.45 218.029 485.22C218.029 485.22 219.052 481.58 222.963 483.318C222.963 483.318 219.818 480.276 222.259 477.018C224.701 473.76 229.045 475.714 229.045 475.714C229.045 475.714 227.09 473.76 228.175 471.804C229.26 469.849 232.085 468.762 236.213 471.804C236.213 471.804 234.257 469.553 235.343 467.42C236.428 465.287 238.926 464.526 242.945 467.42C246.714 470.134 266.915 482.193 270.39 508.28L292.134 505.583Z" fill="#F2712A"/>
<path d="M271.842 516.12C271.842 516.12 281.4 549.14 281.4 577.382" stroke="#FCA19A" stroke-linecap="round" stroke-linejoin="round"/>
<path d="M251.67 474.097C251.67 474.097 254.968 469.497 258.662 471.011C262.355 472.525 260.834 480.353 258.662 484.262" fill="#F2712A"/>
<path d="M160.899 593.065L173.181 578.392L175.764 580.554C177.708 582.183 178.926 584.517 179.149 587.044C179.373 589.571 178.584 592.083 176.956 594.028C175.328 595.973 172.994 597.192 170.468 597.417C167.941 597.642 165.428 596.854 163.482 595.227L160.899 593.065Z" fill="#F2712A"/>
<path d="M138.739 562.053C138.228 562.664 137.842 563.369 137.604 564.129C137.365 564.889 137.279 565.688 137.349 566.481C137.42 567.275 137.646 568.046 138.015 568.752C138.383 569.458 138.888 570.084 139.498 570.595L161.063 586.18L166.427 579.767L147.285 561.299C146.675 560.787 145.969 560.4 145.209 560.161C144.449 559.922 143.649 559.835 142.856 559.905C142.062 559.975 141.29 560.201 140.583 560.57C139.877 560.938 139.25 561.442 138.739 562.053Z" fill="#FFCECA"/>
<path d="M155.141 551.957C153.984 550.992 152.51 550.49 151.004 550.547C149.498 550.604 148.066 551.216 146.984 552.266C145.903 553.316 145.248 554.728 145.146 556.232C145.044 557.736 145.502 559.224 146.432 560.41C146.781 560.797 147.154 561.16 147.551 561.497L166.429 579.767L169.884 575.638L156.592 553.732C156.225 553.054 155.733 552.452 155.141 551.957Z" fill="#FFCECA"/>
<path d="M131.701 579.976C130.538 579.009 129.775 577.645 129.561 576.148C129.347 574.651 129.697 573.127 130.542 571.873C131.387 570.619 132.668 569.724 134.136 569.361C135.605 568.997 137.155 569.192 138.488 569.907C138.93 570.183 139.353 570.488 139.755 570.82L161.061 586.169L157.606 590.3L133.699 581.085C132.969 580.845 132.291 580.469 131.701 579.976Z" fill="#FFCECA"/>
<path d="M169.89 575.637L157.611 590.306L160.904 593.062L173.182 578.393L169.89 575.637Z" fill="#F2712A"/>
<path d="M163.569 458.759C163.569 458.759 192.999 495.157 193.993 544.127" stroke="#F2712A" stroke-linecap="round" stroke-linejoin="round"/>
<path d="M313.814 459.378C312.593 456.112 308.956 454.454 305.69 455.674C302.423 456.895 300.765 460.532 301.985 463.798L304.548 470.655C305.768 473.921 309.405 475.579 312.672 474.359C315.938 473.138 317.596 469.501 316.376 466.235L313.814 459.378Z" fill="#FFCECA"/>
<path d="M324.535 457.833C323.314 454.566 319.676 452.906 316.409 454.127C313.142 455.347 311.483 458.985 312.703 462.253L315.265 469.111C316.485 472.378 320.123 474.037 323.39 472.817C326.658 471.596 328.317 467.958 327.097 464.691L324.535 457.833Z" fill="#FFCECA"/>
<path d="M334.962 456.8C333.741 453.533 330.103 451.873 326.836 453.094C323.569 454.314 321.91 457.952 323.13 461.22L325.692 468.078C326.912 471.345 330.55 473.004 333.817 471.784C337.085 470.563 338.744 466.925 337.523 463.658L334.962 456.8Z" fill="#FFCECA"/>
<path d="M345.821 455.322C344.6 452.056 340.963 450.397 337.697 451.618C334.43 452.839 332.772 456.476 333.992 459.742L336.554 466.598C337.775 469.865 341.412 471.523 344.679 470.303C347.945 469.082 349.603 465.445 348.383 462.178L345.821 455.322Z" fill="#FFCECA"/>
<path d="M303.741 457.034C303.741 457.034 308.34 451.293 321.812 449.936C335.283 448.579 343.492 450.06 345.489 454.923C347.485 459.786 307.54 462.095 303.741 457.034Z" fill="#FFCECA"/>
<path d="M344.168 452.959C344.168 452.959 349.683 458.565 348.673 465.524L344.168 452.959Z" fill="#FFCECA"/>
</svg>
